<svg width="21" height="21" viewBox="0 0 21 21" fill="none" xmlns="http://www.w3.org/2000/svg">
<path d="M19.3594 3.9375H15.75V1.64062H14.4375V3.9375H6.5625V1.64062H5.25V3.9375H1.64062C1.37965 3.9378 1.12944 4.04161 0.944902 4.22615C0.760362 4.41069 0.656554 4.6609 0.65625 4.92188V18.7031C0.656554 18.9641 0.760362 19.2143 0.944902 19.3988C1.12944 19.5834 1.37965 19.6872 1.64062 19.6875H19.3594C19.6204 19.6872 19.8706 19.5834 20.0551 19.3988C20.2396 19.2143 20.3434 18.9641 20.3438 18.7031V4.92188C20.3434 4.6609 20.2396 4.41069 20.0551 4.22615C19.8706 4.04161 19.6204 3.9378 19.3594 3.9375ZM19.0312 18.375H1.96875V5.25H5.25V6.89062H6.5625V5.25H14.4375V6.89062H15.75V5.25H19.0312V18.375Z" fill="#A9A9A9"/>
<path d="M4.59375 9.1875H5.90625V10.5H4.59375V9.1875ZM8.20312 9.1875H9.51562V10.5H8.20312V9.1875ZM11.4844 9.1875H12.7969V10.5H11.4844V9.1875ZM15.0938 9.1875H16.4062V10.5H15.0938V9.1875ZM4.59375 12.1406H5.90625V13.4531H4.59375V12.1406ZM8.20312 12.1406H9.51562V13.4531H8.20312V12.1406ZM11.4844 12.1406H12.7969V13.4531H11.4844V12.1406ZM15.0938 12.1406H16.4062V13.4531H15.0938V12.1406ZM4.59375 15.0938H5.90625V16.4062H4.59375V15.0938ZM8.20312 15.0938H9.51562V16.4062H8.20312V15.0938ZM11.4844 15.0938H12.7969V16.4062H11.4844V15.0938ZM15.0938 15.0938H16.4062V16.4062H15.0938V15.0938Z" fill="#A9A9A9"/>
</svg>
