<svg width="17" height="17" viewBox="0 0 17 17" fill="none" xmlns="http://www.w3.org/2000/svg">
<path d="M8.11538 11.2838L2.47351 5.36244C2.37932 5.26364 2.32678 5.13238 2.32678 4.99588C2.32678 4.85938 2.37932 4.72812 2.47351 4.62932L2.47988 4.62294C2.52554 4.57488 2.5805 4.53661 2.64142 4.51045C2.70233 4.4843 2.76793 4.47082 2.83423 4.47082C2.90052 4.47082 2.96612 4.4843 3.02704 4.51045C3.08795 4.53661 3.14291 4.57488 3.18857 4.62294L8.50107 10.1989L13.8114 4.62294C13.8571 4.57488 13.9121 4.53661 13.973 4.51045C14.0339 4.4843 14.0995 4.47082 14.1658 4.47082C14.2321 4.47082 14.2977 4.4843 14.3586 4.51045C14.4195 4.53661 14.4745 4.57488 14.5201 4.62294L14.5265 4.62932C14.6207 4.72812 14.6732 4.85938 14.6732 4.99588C14.6732 5.13238 14.6207 5.26364 14.5265 5.36244L8.88463 11.2838C8.83502 11.3358 8.77534 11.3773 8.70923 11.4056C8.64311 11.4339 8.57194 11.4485 8.50001 11.4485C8.42808 11.4485 8.3569 11.4339 8.29079 11.4056C8.22467 11.3773 8.165 11.3358 8.11538 11.2838Z" fill="#044480"/>
</svg>
