<svg width="19" height="19" viewBox="0 0 19 19" fill="none" xmlns="http://www.w3.org/2000/svg">
<path d="M9.5 0.791504C11.3897 0.791504 13.2019 1.54217 14.5381 2.87837C15.8743 4.21456 16.625 6.02684 16.625 7.9165C16.625 10.8663 14.3767 13.9569 9.975 17.2582C9.83797 17.3609 9.67129 17.4165 9.5 17.4165C9.32871 17.4165 9.16203 17.3609 9.025 17.2582C4.62333 13.9569 2.375 10.8663 2.375 7.9165C2.375 6.02684 3.12567 4.21456 4.46186 2.87837C5.79806 1.54217 7.61033 0.791504 9.5 0.791504ZM9.5 5.5415C8.87011 5.5415 8.26602 5.79173 7.82062 6.23713C7.37522 6.68252 7.125 7.28661 7.125 7.9165C7.125 8.54639 7.37522 9.15048 7.82062 9.59588C8.26602 10.0413 8.87011 10.2915 9.5 10.2915C10.1299 10.2915 10.734 10.0413 11.1794 9.59588C11.6248 9.15048 11.875 8.54639 11.875 7.9165C11.875 7.28661 11.6248 6.68252 11.1794 6.23713C10.734 5.79173 10.1299 5.5415 9.5 5.5415Z" fill="white"/>
</svg>
