<svg width="22" height="22" viewBox="0 0 22 22" fill="none" xmlns="http://www.w3.org/2000/svg">
<path d="M7.33337 10.9998C8.30583 10.9998 9.23847 10.6135 9.9261 9.9259C10.6137 9.23826 11 8.30563 11 7.33317C11 6.36071 10.6137 5.42808 9.9261 4.74045C9.23847 4.05281 8.30583 3.6665 7.33337 3.6665C6.36091 3.6665 5.42828 4.05281 4.74065 4.74045C4.05302 5.42808 3.66671 6.36071 3.66671 7.33317C3.66671 8.30563 4.05302 9.23826 4.74065 9.9259C5.42828 10.6135 6.36091 10.9998 7.33337 10.9998ZM15.5834 10.9998C16.3127 10.9998 17.0122 10.7101 17.5279 10.1944C18.0436 9.67866 18.3334 8.97918 18.3334 8.24984C18.3334 7.52049 18.0436 6.82102 17.5279 6.30529C17.0122 5.78957 16.3127 5.49984 15.5834 5.49984C14.854 5.49984 14.1546 5.78957 13.6388 6.30529C13.1231 6.82102 12.8334 7.52049 12.8334 8.24984C12.8334 8.97918 13.1231 9.67866 13.6388 10.1944C14.1546 10.7101 14.854 10.9998 15.5834 10.9998ZM3.89587 12.8332C3.34886 12.8332 2.82426 13.0505 2.43747 13.4373C2.05067 13.8241 1.83337 14.3487 1.83337 14.8957V15.1248C1.83337 15.1248 1.83337 19.2498 7.33337 19.2498C12.8334 19.2498 12.8334 15.1248 12.8334 15.1248V14.8957C12.8334 14.3487 12.6161 13.8241 12.2293 13.4373C11.8425 13.0505 11.3179 12.8332 10.7709 12.8332H3.89587ZM15.5834 17.8748C14.51 17.8748 13.6877 17.7089 13.058 17.455C13.4245 16.8364 13.6545 16.1467 13.7326 15.4319C13.7415 15.3451 13.7474 15.2579 13.75 15.1707V14.8957C13.7512 14.1277 13.4549 13.3892 12.9232 12.835C12.9544 12.8337 12.9855 12.8331 13.0167 12.8332H18.15C18.6849 12.8332 19.1978 13.0456 19.576 13.4238C19.9542 13.802 20.1667 14.315 20.1667 14.8498C20.1667 14.8498 20.1667 17.8748 15.5834 17.8748Z" fill="#D43F2D"/>
</svg>
