<svg width="36" height="36" viewBox="0 0 36 36" fill="none" xmlns="http://www.w3.org/2000/svg">
<circle cx="18" cy="18" r="18" fill="#044480" fill-opacity="0.5"/>
<path fill-rule="evenodd" clip-rule="evenodd" d="M18.04 22.3598H18.84C18.84 22.3598 19.08 22.3198 19.2 22.1998C19.32 22.0798 19.32 21.8398 19.32 21.8398C19.32 21.8398 19.32 20.7998 19.8 20.6398C20.28 20.4798 20.92 21.6798 21.56 22.1198C22.04 22.4798 22.4 22.3998 22.4 22.3998L24.16 22.3598C24.16 22.3598 25.08 22.3198 24.64 21.5598C24.6 21.5198 24.4 21.0398 23.32 20.0398C22.2 18.9998 22.36 19.1998 23.68 17.3998C24.48 16.3198 24.8 15.6798 24.72 15.3598C24.64 15.0798 24.04 15.1598 24.04 15.1598H22.04C22.04 15.1598 21.88 15.1198 21.8 15.1998C21.68 15.2798 21.64 15.3998 21.64 15.3998C21.64 15.3998 21.32 16.2398 20.92 16.9598C20.04 18.4398 19.68 18.5198 19.56 18.4398C19.24 18.2398 19.32 17.5598 19.32 17.1198C19.32 15.6798 19.56 15.0798 18.88 14.9198C18.68 14.8798 18.52 14.8398 17.96 14.8398C17.24 14.8398 16.64 14.8398 16.32 14.9998C16.08 15.1198 15.92 15.3598 16.04 15.3598C16.16 15.3598 16.48 15.4398 16.64 15.6398C16.8 15.9998 16.8 16.5998 16.8 16.5998C16.8 16.5998 16.92 18.3198 16.52 18.5198C16.24 18.6798 15.88 18.3598 15.08 16.9998C14.68 16.3198 14.36 15.5198 14.36 15.5198C14.36 15.5198 14.32 15.3598 14.2 15.2798C14.08 15.1998 13.88 15.1598 13.88 15.1598H12C12 15.1598 11.72 15.1598 11.6 15.2798C11.52 15.3998 11.6 15.5998 11.6 15.5998C11.6 15.5998 13.08 19.0398 14.76 20.7998C16.32 22.4798 18.04 22.3598 18.04 22.3598Z" fill="white"/>
</svg>
