<svg width="36" height="36" viewBox="0 0 36 36" fill="none" xmlns="http://www.w3.org/2000/svg">
<circle cx="18" cy="18" r="18" fill="#044480" fill-opacity="0.5"/>
<path d="M17.9895 17.2557C15.8708 17.2557 14.1098 15.4963 14.1098 13.4142C14.1098 11.2602 15.8708 9.5 17.9903 9.5C20.1818 9.5 21.87 11.2595 21.87 13.4142C21.8663 14.4365 21.4568 15.4155 20.7315 16.136C20.0062 16.8565 19.0246 17.2595 18.0023 17.2565L17.9895 17.2557ZM17.9895 11.7628C17.0925 11.7628 16.41 12.5165 16.41 13.415C16.41 14.312 17.0925 14.9945 17.9903 14.9945C18.924 14.9945 19.5705 14.312 19.5705 13.415C19.5713 12.5157 18.924 11.7628 17.9895 11.7628ZM19.5345 20.4523L21.7268 22.571C22.158 23.0367 22.158 23.7193 21.7268 24.1505C21.2603 24.6163 20.541 24.6163 20.1818 24.1505L17.9903 21.9957L15.8708 24.1505C15.6555 24.3658 15.3675 24.473 15.0435 24.473C14.7923 24.473 14.505 24.365 14.253 24.1505C13.8218 23.7193 13.8218 23.0367 14.253 22.5702L16.4805 20.4515C15.6761 20.2133 14.9045 19.8759 14.1833 19.4472C13.644 19.16 13.5368 18.4423 13.824 17.903C14.1833 17.3645 14.8298 17.2213 15.405 17.5805C16.184 18.0559 17.0789 18.3074 17.9914 18.3074C18.904 18.3074 19.7989 18.0559 20.5778 17.5805C21.153 17.2213 21.8348 17.3645 22.158 17.903C22.482 18.4423 22.3373 19.1592 21.834 19.4472C21.1523 19.8785 20.3618 20.2017 19.5353 20.453L19.5345 20.4523Z" fill="white"/>
</svg>
