<svg width="55" height="25" viewBox="0 0 55 25" fill="none" xmlns="http://www.w3.org/2000/svg">
<rect width="55" height="25" rx="3" fill="white"/>
<path d="M23.7467 6.58545H30.2295V18.2405H23.7467V6.58545Z" fill="#FF5F00"/>
<path d="M24.1583 12.4131C24.1583 10.0451 25.2697 7.94464 26.9778 6.58554C25.7225 5.59715 24.1378 5 22.4091 5C18.3134 5 15 8.31526 15 12.4131C15 16.5109 18.3134 19.8262 22.409 19.8262C24.1377 19.8262 25.7224 19.2291 26.9778 18.2406C25.2697 16.9021 24.1583 14.7811 24.1583 12.4131Z" fill="#EB001B"/>
<path d="M38.9762 12.4131C38.9762 16.5109 35.6628 19.8262 31.5672 19.8262C29.8385 19.8262 28.2538 19.2291 26.9984 18.2406C28.7272 16.8816 29.8179 14.7811 29.8179 12.4131C29.8179 10.0451 28.7065 7.94464 26.9984 6.58554C28.2537 5.59715 29.8385 5 31.5672 5C35.6628 5 38.9762 8.33589 38.9762 12.4131Z" fill="#F79E1B"/>
</svg>
