<svg width="36" height="36" viewBox="0 0 36 36" fill="none" xmlns="http://www.w3.org/2000/svg">
<circle cx="18" cy="18" r="18" fill="#044480" fill-opacity="0.5"/>
<g clip-path="url(#clip0_1_695)">
<path d="M17.6491 12.002C16.5256 12.0156 14.1102 12.2002 12.7592 13.4397C11.7542 14.4354 11.4034 15.9076 11.3622 17.728C11.3281 19.5419 11.287 22.9483 14.5704 23.8758V25.2885C14.5704 25.2885 14.5499 25.8537 14.9235 25.9697C15.3837 26.1153 15.6458 25.6805 16.0833 25.2132L16.8992 24.2905C19.1458 24.4774 20.8665 24.0468 21.0647 23.983C21.5205 23.8373 24.0882 23.5092 24.5078 20.1024C24.9383 16.584 24.2982 14.3672 23.1428 13.3644H23.1358C22.7871 13.0433 21.3858 12.0222 18.255 12.0108C18.255 12.0108 18.0227 11.995 17.6491 12.0016V12.002ZM17.6876 12.9912C18.0065 12.989 18.2004 13.0026 18.2004 13.0026C20.8503 13.0096 22.1151 13.8072 22.4135 14.0758C23.3865 14.9097 23.8879 16.9082 23.5208 19.8455C23.1721 22.6937 21.0896 22.8739 20.7042 22.9969C20.5401 23.0493 19.0246 23.423 17.1154 23.3C17.1154 23.3 15.6935 25.0159 15.249 25.4578C15.1785 25.5352 15.0963 25.558 15.0438 25.5466C14.9685 25.5282 14.9458 25.435 14.9502 25.3073L14.9637 22.9627C12.179 22.1927 12.3431 19.2873 12.3729 17.7696C12.407 16.2519 12.6918 15.0103 13.5397 14.1694C14.6811 13.1373 16.7321 12.9982 17.6867 12.9912H17.6876ZM17.8976 14.5085C17.8747 14.5082 17.8519 14.5126 17.8307 14.5211C17.8095 14.5297 17.7901 14.5425 17.7738 14.5586C17.7575 14.5747 17.7445 14.5938 17.7357 14.615C17.7268 14.6361 17.7222 14.6588 17.7222 14.6817C17.7222 14.7797 17.8018 14.8572 17.8976 14.8572C18.3314 14.8489 18.7625 14.9266 19.1661 15.0858C19.5697 15.245 19.9378 15.4825 20.2492 15.7847C20.8849 16.402 21.1946 17.2315 21.2064 18.316C21.2064 18.4118 21.2839 18.4915 21.3819 18.4915V18.4845C21.428 18.4846 21.4724 18.4664 21.5053 18.434C21.5381 18.4015 21.5568 18.3574 21.5573 18.3112C21.5785 17.8007 21.4957 17.2912 21.314 16.8137C21.1322 16.3362 20.8552 15.9007 20.4999 15.5335C19.8073 14.8567 18.9297 14.508 17.8976 14.508V14.5085ZM15.5915 14.9097C15.4677 14.8916 15.3414 14.9164 15.2337 14.9801H15.2245C14.9743 15.1267 14.749 15.312 14.5569 15.5292C14.3972 15.7138 14.3105 15.9006 14.2878 16.0804C14.2742 16.1876 14.2834 16.2948 14.3154 16.3972L14.3267 16.4042C14.5065 16.9327 14.7415 17.441 15.0285 17.9197C15.3982 18.5921 15.8531 19.214 16.3821 19.7698L16.3979 19.7926L16.4228 19.811L16.4385 19.8293L16.4569 19.8451C17.0148 20.3756 17.6382 20.8327 18.3119 21.2053C19.0819 21.6244 19.5492 21.8226 19.8296 21.9049V21.9092C19.9119 21.9342 19.9867 21.9455 20.0619 21.9455C20.3009 21.928 20.5272 21.831 20.7046 21.6699C20.9207 21.4777 21.104 21.2515 21.2471 21.0001V20.9957C21.3814 20.7429 21.3359 20.5035 21.1421 20.3417C20.754 20.0024 20.3342 19.701 19.8887 19.4417C19.5903 19.2799 19.2871 19.3779 19.1642 19.5419L18.9021 19.8722C18.7678 20.0363 18.5237 20.0135 18.5237 20.0135L18.5167 20.0179C16.6962 19.5528 16.2106 17.7097 16.2106 17.7097C16.2106 17.7097 16.1879 17.459 16.3563 17.3312L16.6844 17.067C16.8415 16.9392 16.9509 16.6365 16.7824 16.3377C16.5249 15.8915 16.2242 15.4717 15.8847 15.0842C15.8104 14.9929 15.7063 14.9307 15.5907 14.9088L15.5915 14.9097ZM18.2004 15.4294C17.968 15.4294 17.968 15.7803 18.2025 15.7803C18.4914 15.785 18.7765 15.8465 19.0416 15.9615C19.3067 16.0764 19.5465 16.2424 19.7474 16.4501C19.9306 16.6522 20.0714 16.8891 20.1614 17.1466C20.2515 17.4042 20.2889 17.6771 20.2715 17.9494C20.2723 17.9955 20.2911 18.0394 20.3239 18.0718C20.3567 18.1042 20.4008 18.1224 20.4469 18.1227L20.4539 18.1318C20.5003 18.1315 20.5448 18.1129 20.5776 18.0801C20.6104 18.0473 20.629 18.0028 20.6294 17.9564C20.6451 17.2612 20.429 16.678 20.005 16.2108C19.5789 15.7435 18.9844 15.4815 18.2253 15.4294H18.2004ZM18.4878 16.3727C18.2485 16.3657 18.2393 16.7235 18.4764 16.7305C19.053 16.7603 19.333 17.0517 19.3698 17.651C19.3706 17.6965 19.3892 17.7399 19.4215 17.7719C19.4539 17.8039 19.4975 17.8219 19.543 17.8221H19.55C19.5734 17.8211 19.5964 17.8154 19.6176 17.8055C19.6388 17.7955 19.6578 17.7814 19.6734 17.764C19.6891 17.7466 19.7012 17.7263 19.7089 17.7042C19.7166 17.6821 19.7199 17.6587 19.7185 17.6353C19.6774 16.8539 19.2512 16.4138 18.4948 16.3731H18.4878V16.3727Z" fill="white"/>
</g>
<defs>
<clipPath id="clip0_1_695">
<rect width="14" height="14" fill="white" transform="translate(11 12)"/>
</clipPath>
</defs>
</svg>
