<svg width="39" height="12" viewBox="0 0 39 12" fill="none" xmlns="http://www.w3.org/2000/svg">
<g clip-path="url(#clip0_1_681)">
<path d="M20.1699 3.82106C20.1476 5.48603 21.7334 6.41509 22.9279 6.96752C24.1552 7.53427 24.5674 7.89774 24.5625 8.40463C24.5534 9.18029 23.5836 9.52265 22.6761 9.53596C21.0928 9.55923 20.1721 9.13027 19.4403 8.80584L18.8699 11.3387C19.6042 11.6598 20.9639 11.9399 22.3738 11.9521C25.6835 11.9521 27.8487 10.4017 27.8605 7.99779C27.8734 4.9469 23.4139 4.77803 23.4443 3.41437C23.4548 3.00087 23.8706 2.55962 24.7816 2.44743C25.2325 2.39075 26.4773 2.34738 27.8887 2.96415L28.4426 0.513547C27.6836 0.251282 26.7081 0.000148773 25.4937 0.000148773C22.3785 0.000148773 20.1875 1.57172 20.1699 3.82106ZM33.7652 0.211233C33.1608 0.211233 32.6515 0.545787 32.4242 1.05919L27.6966 11.7721H31.0038L31.6619 10.046H35.7033L36.0851 11.7721H39L36.4563 0.211233H33.7652ZM34.2278 3.33427L35.1823 7.67552H32.5684L34.2278 3.33427ZM16.16 0.211378L13.5531 11.772H16.7046L19.3103 0.211089L16.16 0.211378ZM11.4978 0.211378L8.21757 8.08005L6.89066 1.3894C6.73496 0.64251 6.12011 0.211233 5.4373 0.211233H0.0751055L0 0.546944C1.10084 0.773643 2.35158 1.13928 3.10934 1.53051C3.57307 1.7695 3.7053 1.97841 3.85765 2.54632L6.37086 11.7721H9.70125L14.8072 0.211233L11.4978 0.211378Z" fill="url(#paint0_linear_1_681)"/>
</g>
<defs>
<linearGradient id="paint0_linear_1_681" x1="1792.99" y1="35.9279" x2="1825.82" y2="-1191.66" gradientUnits="userSpaceOnUse">
<stop stop-color="#222357"/>
<stop offset="1" stop-color="#254AA5"/>
</linearGradient>
<clipPath id="clip0_1_681">
<rect width="39" height="12" fill="white"/>
</clipPath>
</defs>
</svg>
