<svg width="20" height="20" viewBox="0 0 20 20" fill="none" xmlns="http://www.w3.org/2000/svg">
<path fill-rule="evenodd" clip-rule="evenodd" d="M7.50003 2.49984C7.50003 2.27882 7.58783 2.06686 7.74411 1.91058C7.90039 1.7543 8.11235 1.6665 8.33336 1.6665H11.6667C11.8877 1.6665 12.0997 1.7543 12.256 1.91058C12.4122 2.06686 12.5 2.27882 12.5 2.49984V4.1665H15C15.123 4.16655 15.2444 4.19382 15.3556 4.24634C15.4668 4.29886 15.565 4.37534 15.6431 4.47029C15.7213 4.56524 15.7775 4.67631 15.8076 4.79552C15.8378 4.91474 15.8411 5.03915 15.8175 5.15984L15.4534 7.02484L14.3475 6.779L10.1809 5.85317C10.0618 5.82669 9.9383 5.82669 9.8192 5.85317L5.65253 6.77817L4.5467 7.02484L4.18253 5.15984C4.15892 5.03915 4.16231 4.91474 4.19246 4.79552C4.22261 4.67631 4.27877 4.56524 4.35691 4.47029C4.43506 4.37534 4.53324 4.29886 4.64443 4.24634C4.75562 4.19382 4.87706 4.16655 5.00003 4.1665H7.50003V2.49984ZM2.42336 9.16317L2.3192 9.1865C2.19565 9.21404 2.08001 9.26936 1.98104 9.34826C1.88206 9.42716 1.80236 9.52757 1.74798 9.64187C1.69361 9.75616 1.66598 9.88135 1.6672 10.0079C1.66842 10.1345 1.69846 10.2591 1.75503 10.3723L3.4217 13.7057C3.49984 13.862 3.62517 13.9898 3.77996 14.071C3.93474 14.1523 4.11114 14.1827 4.2842 14.1582L10 13.3415L15.7159 14.1582C15.8889 14.1827 16.0653 14.1523 16.2201 14.071C16.3749 13.9898 16.5002 13.862 16.5784 13.7057L18.245 10.3723C18.3016 10.2591 18.3316 10.1345 18.3329 10.0079C18.3341 9.88135 18.3065 9.75616 18.2521 9.64187C18.1977 9.52757 18.118 9.42716 18.019 9.34826C17.9201 9.26936 17.8044 9.21404 17.6809 9.1865L17.5767 9.16317C17.4905 9.17102 17.4036 9.1654 17.3192 9.1465L13.9859 8.40567L10 7.51984L6.0142 8.40567L2.68086 9.14734C2.59637 9.16595 2.5095 9.17129 2.42336 9.16317ZM7.72336 15.504C8.00736 15.1795 8.35746 14.9194 8.75018 14.7412C9.14291 14.563 9.56919 14.4708 10.0004 14.4708C10.4317 14.4708 10.858 14.563 11.2507 14.7412C11.6434 14.9194 11.9935 15.1795 12.2775 15.504L12.3067 15.5373C12.5157 15.7764 12.8045 15.9313 13.1193 15.9732C13.4341 16.0151 13.7533 15.941 14.0175 15.7648C14.419 15.4973 14.8794 15.3315 15.3592 15.2815C15.839 15.2316 16.3238 15.2991 16.7717 15.4782L17.8092 15.8923C18.011 15.9767 18.1716 16.137 18.2563 16.3387C18.3409 16.5404 18.3429 16.7673 18.2617 16.9704C18.1806 17.1736 18.0228 17.3366 17.8224 17.4245C17.6221 17.5123 17.3952 17.5178 17.1909 17.4398L16.1534 17.0248C15.9563 16.9461 15.743 16.9165 15.5319 16.9385C15.3208 16.9606 15.1182 17.0337 14.9417 17.1515C14.3411 17.5518 13.6154 17.7202 12.8999 17.6251C12.1844 17.5301 11.5278 17.1781 11.0525 16.6348L11.0234 16.6015C10.8958 16.4556 10.7385 16.3386 10.562 16.2584C10.3855 16.1783 10.1939 16.1368 10 16.1368C9.80619 16.1368 9.61458 16.1783 9.43808 16.2584C9.26158 16.3386 9.10427 16.4556 8.9767 16.6015L8.94753 16.6348C8.47227 17.1781 7.81571 17.5301 7.10018 17.6251C6.38466 17.7202 5.65898 17.5518 5.05836 17.1515C4.88182 17.0337 4.67927 16.9606 4.46817 16.9385C4.25708 16.9165 4.04379 16.9461 3.8467 17.0248L2.8092 17.4398C2.70721 17.4825 2.59776 17.5044 2.48722 17.5043C2.37669 17.5042 2.26727 17.4821 2.16535 17.4393C2.06343 17.3966 1.97103 17.3339 1.89355 17.2551C1.81607 17.1763 1.75504 17.0828 1.71403 16.9801C1.67301 16.8775 1.65283 16.7677 1.65465 16.6572C1.65648 16.5467 1.68027 16.4376 1.72465 16.3364C1.76902 16.2352 1.8331 16.1438 1.91314 16.0675C1.99318 15.9913 2.08759 15.9317 2.19086 15.8923L3.22836 15.4782C3.67628 15.2991 4.16103 15.2316 4.64083 15.2815C5.12063 15.3315 5.5811 15.4973 5.98253 15.7648C6.24674 15.941 6.566 16.0151 6.88078 15.9732C7.19556 15.9313 7.48437 15.7764 7.69336 15.5373L7.72336 15.504Z" fill="#D43F2D"/>
</svg>
