<svg width="19" height="19" viewBox="0 0 19 19" fill="none" xmlns="http://www.w3.org/2000/svg">
<path d="M9.5 1.78125C7.97338 1.78125 6.48104 2.23395 5.2117 3.08209C3.94235 3.93024 2.95302 5.13574 2.36881 6.54616C1.78459 7.95658 1.63174 9.50856 1.92957 11.0059C2.2274 12.5031 2.96254 13.8785 4.04202 14.958C5.12151 16.0375 6.49686 16.7726 7.99415 17.0704C9.49144 17.3683 11.0434 17.2154 12.4538 16.6312C13.8643 16.047 15.0698 15.0576 15.9179 13.7883C16.7661 12.519 17.2188 11.0266 17.2188 9.5C17.2166 7.45352 16.4027 5.49148 14.9556 4.04441C13.5085 2.59733 11.5465 1.78341 9.5 1.78125ZM9.5 14.25C9.32385 14.25 9.15166 14.1978 9.0052 14.0999C8.85874 14.002 8.74458 13.8629 8.67717 13.7002C8.60976 13.5375 8.59213 13.3584 8.62649 13.1856C8.66086 13.0129 8.74568 12.8542 8.87024 12.7296C8.99479 12.6051 9.15349 12.5202 9.32625 12.4859C9.49902 12.4515 9.67809 12.4691 9.84083 12.5365C10.0036 12.604 10.1427 12.7181 10.2405 12.8646C10.3384 13.011 10.3906 13.1832 10.3906 13.3594C10.3906 13.5956 10.2968 13.8221 10.1298 13.9891C9.96275 14.1562 9.73621 14.25 9.5 14.25ZM10.0938 10.6341V10.6875C10.0938 10.845 10.0312 10.996 9.91985 11.1073C9.8085 11.2187 9.65748 11.2812 9.5 11.2812C9.34253 11.2812 9.19151 11.2187 9.08016 11.1073C8.96881 10.996 8.90625 10.845 8.90625 10.6875V10.0938C8.90625 9.93628 8.96881 9.78525 9.08016 9.6739C9.19151 9.56256 9.34253 9.5 9.5 9.5C10.4819 9.5 11.2813 8.83203 11.2813 8.01562C11.2813 7.19922 10.4819 6.53125 9.5 6.53125C8.51809 6.53125 7.71875 7.19922 7.71875 8.01562V8.3125C7.71875 8.46997 7.6562 8.621 7.54485 8.73234C7.4335 8.84369 7.28248 8.90625 7.125 8.90625C6.96753 8.90625 6.81651 8.84369 6.70516 8.73234C6.59381 8.621 6.53125 8.46997 6.53125 8.3125V8.01562C6.53125 6.54238 7.86274 5.34375 9.5 5.34375C11.1373 5.34375 12.4688 6.54238 12.4688 8.01562C12.4688 9.30555 11.4475 10.3854 10.0938 10.6341Z" fill="#044480"/>
</svg>
