<svg width="22" height="22" viewBox="0 0 22 22" fill="none" xmlns="http://www.w3.org/2000/svg">
<path d="M20.6112 5.18472C20.5893 5.29316 20.5415 5.3947 20.4719 5.48073C20.4024 5.56676 20.3131 5.63472 20.2116 5.67886L15.3828 7.78175C16.9539 8.20182 18.2941 9.22829 19.109 10.6357C19.5179 11.3334 19.7832 12.1057 19.8895 12.9074C19.9957 13.709 19.9407 14.5238 19.7278 15.3039C19.6983 15.4126 19.6426 15.5124 19.5656 15.5945C19.4886 15.6766 19.3925 15.7386 19.2859 15.7749C19.1793 15.8112 19.0655 15.8208 18.9543 15.8028C18.8431 15.7848 18.7381 15.7398 18.6484 15.6717L11.6875 10.371V19.2501C11.6875 19.4324 11.615 19.6073 11.4861 19.7362C11.3572 19.8652 11.1823 19.9376 11 19.9376C10.8176 19.9376 10.6428 19.8652 10.5138 19.7362C10.3849 19.6073 10.3125 19.4324 10.3125 19.2501V10.371L3.35152 15.6717C3.26183 15.74 3.15672 15.7852 3.04545 15.8033C2.93417 15.8214 2.82016 15.8118 2.71344 15.7755C2.60672 15.7392 2.51057 15.6771 2.43347 15.5949C2.35637 15.5126 2.30067 15.4127 2.27129 15.3039C2.05832 14.5238 2.00334 13.709 2.1096 12.9074C2.21585 12.1057 2.48119 11.3334 2.89004 10.6357C3.70515 9.22811 5.04568 8.20162 6.61715 7.78175L1.78832 5.67886C1.68695 5.6347 1.59772 5.56675 1.52821 5.48075C1.4587 5.39476 1.41095 5.29327 1.38902 5.1849C1.36709 5.07652 1.37163 4.96445 1.40224 4.8582C1.43286 4.75195 1.48865 4.65465 1.56488 4.57456C2.10246 3.9988 2.75268 3.53972 3.47516 3.22584C4.19764 2.91197 4.97694 2.75 5.76465 2.75C6.55236 2.75 7.33166 2.91197 8.05414 3.22584C8.77662 3.53972 9.42684 3.9988 9.96441 4.57456C10.3769 5.0092 10.7243 5.50128 10.9957 6.0355C11.2684 5.50101 11.6172 5.00891 12.0312 4.57456C12.5688 3.9988 13.219 3.53972 13.9415 3.22584C14.664 2.91197 15.4433 2.75 16.231 2.75C17.0187 2.75 17.798 2.91197 18.5205 3.22584C19.2429 3.53972 19.8932 3.9988 20.4307 4.57456C20.5078 4.6542 20.5644 4.75127 20.5958 4.8575C20.6272 4.96374 20.6325 5.076 20.6112 5.18472Z" fill="#D43F2D"/>
</svg>
