<svg width="20" height="20" viewBox="0 0 20 20" fill="none" xmlns="http://www.w3.org/2000/svg">
<path d="M6.45838 2.08325C6.45838 1.91749 6.39253 1.75852 6.27532 1.64131C6.15811 1.5241 5.99914 1.45825 5.83338 1.45825C5.66762 1.45825 5.50865 1.5241 5.39144 1.64131C5.27423 1.75852 5.20838 1.91749 5.20838 2.08325V3.39992C4.00838 3.49575 3.22171 3.73075 2.64338 4.30992C2.06421 4.88825 1.82921 5.67575 1.73254 6.87492H18.2675C18.1709 5.67492 17.9359 4.88825 17.3567 4.30992C16.7784 3.73075 15.9909 3.49575 14.7917 3.39909V2.08325C14.7917 1.91749 14.7259 1.75852 14.6087 1.64131C14.4914 1.5241 14.3325 1.45825 14.1667 1.45825C14.001 1.45825 13.842 1.5241 13.7248 1.64131C13.6076 1.75852 13.5417 1.91749 13.5417 2.08325V3.34409C12.9875 3.33325 12.3659 3.33325 11.6667 3.33325H8.33338C7.63421 3.33325 7.01254 3.33325 6.45838 3.34409V2.08325Z" fill="#044480"/>
<path fill-rule="evenodd" clip-rule="evenodd" d="M1.66663 10C1.66663 9.30083 1.66663 8.67917 1.67746 8.125H18.3225C18.3333 8.67917 18.3333 9.30083 18.3333 10V11.6667C18.3333 14.8092 18.3333 16.3808 17.3566 17.3567C16.3808 18.3333 14.8091 18.3333 11.6666 18.3333H8.33329C5.19079 18.3333 3.61913 18.3333 2.64329 17.3567C1.66663 16.3808 1.66663 14.8092 1.66663 11.6667V10ZM14.1666 11.6667C14.3876 11.6667 14.5996 11.5789 14.7559 11.4226C14.9122 11.2663 15 11.0543 15 10.8333C15 10.6123 14.9122 10.4004 14.7559 10.2441C14.5996 10.0878 14.3876 10 14.1666 10C13.9456 10 13.7336 10.0878 13.5774 10.2441C13.4211 10.4004 13.3333 10.6123 13.3333 10.8333C13.3333 11.0543 13.4211 11.2663 13.5774 11.4226C13.7336 11.5789 13.9456 11.6667 14.1666 11.6667ZM14.1666 15C14.3876 15 14.5996 14.9122 14.7559 14.7559C14.9122 14.5996 15 14.3877 15 14.1667C15 13.9457 14.9122 13.7337 14.7559 13.5774C14.5996 13.4211 14.3876 13.3333 14.1666 13.3333C13.9456 13.3333 13.7336 13.4211 13.5774 13.5774C13.4211 13.7337 13.3333 13.9457 13.3333 14.1667C13.3333 14.3877 13.4211 14.5996 13.5774 14.7559C13.7336 14.9122 13.9456 15 14.1666 15ZM10.8333 10.8333C10.8333 11.0543 10.7455 11.2663 10.5892 11.4226C10.4329 11.5789 10.221 11.6667 9.99996 11.6667C9.77894 11.6667 9.56698 11.5789 9.4107 11.4226C9.25442 11.2663 9.16663 11.0543 9.16663 10.8333C9.16663 10.6123 9.25442 10.4004 9.4107 10.2441C9.56698 10.0878 9.77894 10 9.99996 10C10.221 10 10.4329 10.0878 10.5892 10.2441C10.7455 10.4004 10.8333 10.6123 10.8333 10.8333ZM10.8333 14.1667C10.8333 14.3877 10.7455 14.5996 10.5892 14.7559C10.4329 14.9122 10.221 15 9.99996 15C9.77894 15 9.56698 14.9122 9.4107 14.7559C9.25442 14.5996 9.16663 14.3877 9.16663 14.1667C9.16663 13.9457 9.25442 13.7337 9.4107 13.5774C9.56698 13.4211 9.77894 13.3333 9.99996 13.3333C10.221 13.3333 10.4329 13.4211 10.5892 13.5774C10.7455 13.7337 10.8333 13.9457 10.8333 14.1667ZM5.83329 11.6667C6.05431 11.6667 6.26627 11.5789 6.42255 11.4226C6.57883 11.2663 6.66663 11.0543 6.66663 10.8333C6.66663 10.6123 6.57883 10.4004 6.42255 10.2441C6.26627 10.0878 6.05431 10 5.83329 10C5.61228 10 5.40032 10.0878 5.24404 10.2441C5.08776 10.4004 4.99996 10.6123 4.99996 10.8333C4.99996 11.0543 5.08776 11.2663 5.24404 11.4226C5.40032 11.5789 5.61228 11.6667 5.83329 11.6667ZM5.83329 15C6.05431 15 6.26627 14.9122 6.42255 14.7559C6.57883 14.5996 6.66663 14.3877 6.66663 14.1667C6.66663 13.9457 6.57883 13.7337 6.42255 13.5774C6.26627 13.4211 6.05431 13.3333 5.83329 13.3333C5.61228 13.3333 5.40032 13.4211 5.24404 13.5774C5.08776 13.7337 4.99996 13.9457 4.99996 14.1667C4.99996 14.3877 5.08776 14.5996 5.24404 14.7559C5.40032 14.9122 5.61228 15 5.83329 15Z" fill="#044480"/>
</svg>
