<svg width="19" height="19" viewBox="0 0 19 19" fill="none" xmlns="http://www.w3.org/2000/svg">
<path fill-rule="evenodd" clip-rule="evenodd" d="M17.4166 9.49999C17.4166 13.8724 13.8724 17.4167 9.49998 17.4167C5.1276 17.4167 1.58331 13.8724 1.58331 9.49999C1.58331 5.12762 5.1276 1.58333 9.49998 1.58333C13.8724 1.58333 17.4166 5.12762 17.4166 9.49999ZM7.10123 7.10124C7.21256 6.99006 7.36347 6.9276 7.52081 6.9276C7.67816 6.9276 7.82907 6.99006 7.9404 7.10124L9.49998 8.66083L11.0596 7.10124C11.1721 6.99637 11.321 6.93927 11.4748 6.94198C11.6286 6.94469 11.7754 7.00701 11.8842 7.11579C11.993 7.22458 12.0553 7.37134 12.058 7.52516C12.0607 7.67899 12.0036 7.82786 11.8987 7.94041L10.3391 9.49999L11.8987 11.0596C12.0036 11.1721 12.0607 11.321 12.058 11.4748C12.0553 11.6286 11.993 11.7754 11.8842 11.8842C11.7754 11.993 11.6286 12.0553 11.4748 12.058C11.321 12.0607 11.1721 12.0036 11.0596 11.8987L9.49998 10.3392L7.9404 11.8987C7.82784 12.0036 7.67897 12.0607 7.52515 12.058C7.37133 12.0553 7.22456 11.993 7.11578 11.8842C7.00699 11.7754 6.94468 11.6286 6.94197 11.4748C6.93925 11.321 6.99635 11.1721 7.10123 11.0596L8.66081 9.49999L7.10123 7.94041C6.99004 7.82908 6.92759 7.67817 6.92759 7.52083C6.92759 7.36348 6.99004 7.21257 7.10123 7.10124Z" fill="#BEBEBE"/>
</svg>
