<svg width="17" height="17" viewBox="0 0 17 17" fill="none" xmlns="http://www.w3.org/2000/svg">
<g clip-path="url(#clip0_1_178)">
<path fill-rule="evenodd" clip-rule="evenodd" d="M17 8.5C17 10.7543 16.1045 12.9163 14.5104 14.5104C12.9163 16.1045 10.7543 17 8.5 17C6.24566 17 4.08365 16.1045 2.48959 14.5104C0.895533 12.9163 0 10.7543 0 8.5C0 6.24566 0.895533 4.08365 2.48959 2.48959C4.08365 0.895533 6.24566 0 8.5 0C10.7543 0 12.9163 0.895533 14.5104 2.48959C16.1045 4.08365 17 6.24566 17 8.5ZM12.3711 4.62886C12.3007 4.55836 12.217 4.50244 12.1249 4.46429C12.0328 4.42614 11.9341 4.4065 11.8344 4.4065C11.7347 4.4065 11.636 4.42614 11.544 4.46429C11.4519 4.50244 11.3682 4.55836 11.2977 4.62886L4.62886 11.2977C4.55837 11.3682 4.50247 11.4519 4.46432 11.544C4.42618 11.6361 4.40654 11.7348 4.40654 11.8344C4.40654 11.9341 4.42618 12.0328 4.46432 12.1249C4.50247 12.217 4.55837 12.3007 4.62886 12.3711C4.69934 12.4416 4.78301 12.4975 4.8751 12.5357C4.96719 12.5738 5.06589 12.5935 5.16557 12.5935C5.26525 12.5935 5.36395 12.5738 5.45604 12.5357C5.54813 12.4975 5.6318 12.4416 5.70229 12.3711L12.3711 5.70229C12.4416 5.63181 12.4976 5.54814 12.5357 5.45605C12.5739 5.36396 12.5935 5.26525 12.5935 5.16557C12.5935 5.06589 12.5739 4.96719 12.5357 4.8751C12.4976 4.78301 12.4416 4.69933 12.3711 4.62886ZM5.83221 4.40786C5.45397 4.40786 5.09121 4.55812 4.82375 4.82558C4.55629 5.09304 4.40604 5.45579 4.40604 5.83404C4.40604 6.21228 4.55629 6.57504 4.82375 6.8425C5.09121 7.10996 5.45397 7.26021 5.83221 7.26021C6.21046 7.26021 6.57321 7.10996 6.84067 6.8425C7.10814 6.57504 7.25839 6.21228 7.25839 5.83404C7.25839 5.45579 7.10814 5.09304 6.84067 4.82558C6.57321 4.55812 6.21046 4.40786 5.83221 4.40786ZM11.1678 9.74221C10.7895 9.74221 10.4268 9.89247 10.1593 10.1599C9.89186 10.4274 9.74161 10.7901 9.74161 11.1684C9.74161 11.5466 9.89186 11.9094 10.1593 12.1769C10.4268 12.4443 10.7895 12.5946 11.1678 12.5946C11.546 12.5946 11.9088 12.4443 12.1762 12.1769C12.4437 11.9094 12.594 11.5466 12.594 11.1684C12.594 10.7901 12.4437 10.4274 12.1762 10.1599C11.9088 9.89247 11.546 9.74221 11.1678 9.74221Z" fill="#D43F2D"/>
</g>
<defs>
<clipPath id="clip0_1_178">
<rect width="17" height="17" fill="white"/>
</clipPath>
</defs>
</svg>
