<svg width="20" height="20" viewBox="0 0 20 20" fill="none" xmlns="http://www.w3.org/2000/svg">
<g clip-path="url(#clip0_1_710)">
<path d="M18.3333 6.2793V14.1668C18.3333 14.8045 18.0897 15.4181 17.6522 15.882C17.2148 16.346 16.6165 16.6252 15.98 16.6626L15.8333 16.6668H4.16663C3.52895 16.6668 2.91536 16.4232 2.45141 15.9857C1.98745 15.5483 1.7082 14.95 1.67079 14.3135L1.66663 14.1668V6.2793L9.53746 11.5268L9.63413 11.5818C9.74805 11.6375 9.87317 11.6664 9.99996 11.6664C10.1268 11.6664 10.2519 11.6375 10.3658 11.5818L10.4625 11.5268L18.3333 6.2793Z" fill="white"/>
<path d="M15.8333 3.3335C16.7333 3.3335 17.5225 3.8085 17.9625 4.52266L9.99998 9.831L2.03748 4.52266C2.24642 4.1833 2.53349 3.89883 2.87473 3.69298C3.21598 3.48713 3.6015 3.36588 3.99914 3.33933L4.16664 3.3335H15.8333Z" fill="white"/>
</g>
<defs>
<clipPath id="clip0_1_710">
<rect width="20" height="20" fill="white"/>
</clipPath>
</defs>
</svg>
